<svg xmlns="http://www.w3.org/2000/svg" viewBox="0 0 800 400" fill="none">
  <rect width="800" height="400" fill="#f0fdf4"/>
  <rect x="100" y="80" width="600" height="240" rx="12" fill="#ffffff" stroke="#bbf7d0" stroke-width="2"/>
  
  <!-- Pregnant woman -->
  <circle cx="200" cy="130" r="15" fill="#fbbf24"/>
  <ellipse cx="200" cy="165" rx="20" ry="28" fill="#34d399"/>
  <rect x="190" y="193" width="8" height="22" fill="#fbbf24"/>
  <rect x="202" y="193" width="8" height="22" fill="#fbbf24"/>
  
  <!-- Doctor icon -->
  <circle cx="280" cy="130" r="12" fill="#fbbf24"/>
  <rect x="270" y="145" width="20" height="25" rx="10" fill="#ffffff"/>
  <rect x="275" y="150" width="10" height="15" fill="#10b981"/>
  
  <!-- Checkup checklist -->
  <rect x="350" y="130" width="80" height="60" rx="4" fill="#f0fdf4" stroke="#10b981"/>
  <path d="M360 145 L365 150 L375 140" stroke="#10b981" stroke-width="2" fill="none"/>
  <path d="M360 155 L365 160 L375 150" stroke="#10b981" stroke-width="2" fill="none"/>
  <path d="M360 165 L365 170 L375 160" stroke="#10b981" stroke-width="2" fill="none"/>
  <path d="M360 175 L365 180 L375 170" stroke="#10b981" stroke-width="2" fill="none"/>
  
  <!-- Vitamins -->
  <ellipse cx="480" cy="145" rx="12" ry="8" fill="#f59e0b"/>
  <ellipse cx="480" cy="165" rx="12" ry="8" fill="#3b82f6"/>
  <ellipse cx="480" cy="185" rx="12" ry="8" fill="#ec4899"/>
  
  <!-- Ultrasound monitor -->
  <rect x="540" y="130" width="60" height="40" rx="4" fill="#1f2937"/>
  <ellipse cx="570" cy="150" rx="20" ry="12" fill="#10b981" opacity="0.3"/>
  <ellipse cx="575" cy="148" rx="8" ry="6" fill="#10b981"/>
  <rect x="550" y="175" width="40" height="8" rx="2" fill="#6b7280"/>
  
  <!-- Medical chart -->
  <rect x="620" y="130" width="40" height="50" rx="2" fill="#ffffff" stroke="#d1d5db"/>
  <line x1="625" y1="140" x2="655" y2="140" stroke="#e5e7eb"/>
  <line x1="625" y1="150" x2="655" y2="150" stroke="#e5e7eb"/>
  <line x1="625" y1="160" x2="655" y2="160" stroke="#e5e7eb"/>
  <line x1="625" y1="170" x2="655" y2="170" stroke="#e5e7eb"/>
  
  <!-- Title -->
  <text x="400" y="250" text-anchor="middle" fill="#1f2937" font-size="24" font-weight="bold">Prenatal Care</text>
  <text x="400" y="280" text-anchor="middle" fill="#6b7280" font-size="16">Essential Care for Healthy Pregnancy</text>
  
  <!-- Decorative elements -->
  <circle cx="650" cy="290" r="3" fill="#10b981" opacity="0.5"/>
  <circle cx="680" cy="320" r="2" fill="#34d399" opacity="0.5"/>
  <circle cx="120" cy="120" r="2" fill="#f59e0b" opacity="0.5"/>
</svg>