<svg xmlns="http://www.w3.org/2000/svg" viewBox="0 0 800 400" fill="none">
  <rect width="800" height="400" fill="#f8fafc"/>
  <rect x="100" y="80" width="600" height="240" rx="12" fill="#ffffff" stroke="#e2e8f0" stroke-width="2"/>
  
  <!-- Medical cross -->
  <rect x="160" y="140" width="8" height="40" fill="#3b82f6"/>
  <rect x="148" y="154" width="32" height="8" fill="#3b82f6"/>
  
  <!-- Syringe -->
  <rect x="220" y="145" width="60" height="8" rx="4" fill="#10b981"/>
  <circle cx="285" cy="149" r="6" fill="#374151"/>
  <rect x="290" y="147" width="15" height="4" fill="#6b7280"/>
  
  <!-- Child icon -->
  <circle cx="400" cy="130" r="15" fill="#fbbf24"/>
  <rect x="390" y="150" width="20" height="30" rx="10" fill="#60a5fa"/>
  <rect x="385" y="165" width="10" height="20" fill="#fbbf24"/>
  <rect x="405" y="165" width="10" height="20" fill="#fbbf24"/>
  
  <!-- Calendar -->
  <rect x="480" y="140" width="60" height="40" rx="4" fill="#ffffff" stroke="#d1d5db"/>
  <rect x="485" y="135" width="5" height="10" fill="#6b7280"/>
  <rect x="510" y="135" width="5" height="10" fill="#6b7280"/>
  <rect x="530" y="135" width="5" height="10" fill="#6b7280"/>
  <line x1="485" y1="150" x2="535" y2="150" stroke="#e5e7eb"/>
  <line x1="485" y1="160" x2="535" y2="160" stroke="#e5e7eb"/>
  <line x1="485" y1="170" x2="535" y2="170" stroke="#e5e7eb"/>
  
  <!-- Title -->
  <text x="400" y="250" text-anchor="middle" fill="#1f2937" font-size="24" font-weight="bold">Vaccination Guide</text>
  <text x="400" y="280" text-anchor="middle" fill="#6b7280" font-size="16">Complete Child Immunization Schedule</text>
  
  <!-- Decorative elements -->
  <circle cx="650" cy="120" r="3" fill="#3b82f6" opacity="0.5"/>
  <circle cx="680" cy="160" r="2" fill="#10b981" opacity="0.5"/>
  <circle cx="120" cy="280" r="2" fill="#f59e0b" opacity="0.5"/>
</svg>